<?xml version="1.0" encoding="UTF-8"?>
<svg id="Layer_1" xmlns="http://www.w3.org/2000/svg" xmlns:xlink="http://www.w3.org/1999/xlink" version="1.1" viewBox="0 0 1075 467">
  <!-- Generator: Adobe Illustrator 29.3.1, SVG Export Plug-In . SVG Version: 2.1.0 Build 151)  -->
  <defs>
    <style>
      .st0, .st1, .st2, .st3, .st4, .st5, .st6, .st7, .st8, .st9, .st10 {
        stroke-miterlimit: 10;
      }

      .st0, .st2 {
        stroke-width: 1.5px;
      }

      .st0, .st2, .st3, .st7, .st8 {
        fill: none;
      }

      .st0, .st7 {
        stroke: #393f44;
      }

      .st11 {
        fill: #fce7e7;
      }

      .st11, .st12, .st1, .st2, .st13, .st14, .st15, .st16, .st4, .st17, .st5, .st6, .st8, .st9, .st10, .st18 {
        stroke: #000;
      }

      .st11, .st12, .st15, .st16, .st17, .st18 {
        stroke-miterlimit: 1.2;
        stroke-width: .1px;
      }

      .st12 {
        fill: #fef4ea;
      }

      .st1, .st18 {
        fill: #ec7a08;
      }

      .st3 {
        stroke: #d3d3d3;
        stroke-dasharray: 5;
        stroke-opacity: .8;
      }

      .st19 {
        font-family: ArialMT, Arial;
        font-size: 12px;
        isolation: isolate;
      }

      .st13 {
        stroke-miterlimit: 10;
        stroke-width: 1px;
      }

      .st14 {
        stroke-miterlimit: 10;
        stroke-width: 1px;
      }

      .st15 {
        fill: #e8fae6;
      }

      .st16, .st9 {
        fill: #a30000;
      }

      .st4, .st20 {
        fill: #fff;
      }

      .st17 {
        fill: #4aa241;
      }

      .st5 {
        stroke-width: 0px;
      }

      .st6 {
        fill: #393f44;
        stroke-width: 0px;
      }

      .st7 {
        stroke-width: 5px;
      }
    </style>
  </defs>
  <g>
    <path class="st3" d="M-107.8-12h1200"/>
    <path class="st3" d="M-107.8-12v800"/>
  </g>
  <g id="_90C55B1C-4F35-4BA5-9060-2A185F6C4609">
    <path class="st3" d="M258.2,128"/>
    <path id="_x5F_90C55B1C-4F35-4BA5-9060-2A185F6C4609_x3F_shapeType_x3D_BACKGROUND" class="st4" d="M260.2,128h149c1.1,0,2,.9,2,2v97h0c0,1.1-.9,2-2,2h-149c-1.1,0-2-.9-2-2v-97h0c0-1.1.9-2,2-2Z"/>
    <path id="_x5F_90C55B1C-4F35-4BA5-9060-2A185F6C4609_x3F_shapeType_x3D_BORDER_x26_renderType_x3D_STROKE" class="st7" d="M260.2,128h149c1.1,0,2,.9,2,2v97h0c0,1.1-.9,2-2,2h-149c-1.1,0-2-.9-2-2v-97h0c0-1.1.9-2,2-2Z"/>
    <g>
      <path id="_90C55B1C-4F35-4BA5-9060-2A185F6C4609_subProcessReusableNormalBoundingBox" class="st0" d="M322.2,204h25v25h-25v-25Z"/>
      <path id="_90C55B1C-4F35-4BA5-9060-2A185F6C4609_subProcessReusableNormalReusableIcon" class="st5" d="M341.9,215v1.9c0,.3,0,.5-.3.7s-.4.3-.7.3h-4.2v4.2c0,.3,0,.5-.3.7s-.4.3-.7.3h-1.9c-.3,0-.5,0-.7-.3s-.3-.4-.3-.7v-4.2h-4.2c-.3,0-.5,0-.7-.3-.2-.2-.3-.4-.3-.7v-1.9c0-.3,0-.5.3-.7.2-.2.4-.3.7-.3h4.2v-4.2c0-.3,0-.5.3-.7s.4-.3.7-.3h1.9c.3,0,.5,0,.7.3s.3.4.3.7v4.2h4.2c.3,0,.5,0,.7.3s.3.4.3.7Z"/>
    </g>
    <g>
      <path class="st10" d="M334,204"/>
      <path class="st5" d="M339.7,207.6"/>
      <path class="st5" d="M311.4,209"/>
      <path class="st5" d="M310.4,210"/>
    </g>
    <text class="st19" transform="translate(315 183)"><tspan x="0" y="0">Review</tspan></text>
  </g>
  <g id="_680ECE30-6ED4-44D6-B4F9-0EE249EC2674">
    <path d="M490.7,150.5"/>
    <g>
      <path id="_x5F_680ECE30-6ED4-44D6-B4F9-0EE249EC2674_x3F_shapeType_x3D_BACKGROUND" class="st12" d="M518.8,151c-1,0-2,.4-2.8,1.1l-23.6,23.6c-1.5,1.5-1.5,4,0,5.5l23.6,23.6c.8.8,1.8,1.1,2.8,1.1s2-.4,2.8-1.1l23.6-23.6c1.5-1.5,1.5-4,0-5.5l-23.6-23.6c-.8-.8-1.8-1.1-2.8-1.1h0Z"/>
      <path id="_x5F_680ECE30-6ED4-44D6-B4F9-0EE249EC2674_x3F_shapeType_x3D_BORDER_x26_renderType_x3D_FILL" class="st18" d="M493.3,177.1l24.1-24.1c.8-.8,2-.8,2.8,0l24.1,24.1c.8.8.8,2.1,0,2.8l-24.1,24.1c-.8.8-2,.8-2.8,0l-24.1-24.1c-.8-.8-.8-2.1,0-2.8h0ZM490.7,178.5c0,1,.4,2,1.2,2.8l24,24c1.5,1.5,4.1,1.5,5.6,0l24-24c.8-.8,1.2-1.8,1.2-2.8s-.4-2-1.2-2.8l-24-24c-1.5-1.6-4.1-1.6-5.6,0l-24,24c-.8.8-1.2,1.8-1.2,2.8h0Z"/>
      <path id="_680ECE30-6ED4-44D6-B4F9-0EE249EC2674_exclusive" class="st18" d="M528,184.2c0,.4-.1.8-.4,1.1l-2.1,2.1c-.3.3-.6.4-1.1.4s-.8-.1-1.1-.4l-4.6-4.6-4.6,4.6c-.3.3-.6.4-1.1.4s-.8-.1-1.1-.4l-2.1-2.1c-.3-.3-.4-.6-.4-1.1s.1-.8.4-1.1l4.6-4.6-4.6-4.6c-.3-.3-.4-.6-.4-1.1s.1-.8.4-1.1l2.1-2.1c.3-.3.6-.4,1.1-.4s.8.1,1.1.4l4.6,4.6,4.6-4.6c.3-.3.6-.4,1.1-.4s.8.1,1.1.4l2.1,2.1c.3.3.4.6.4,1.1s-.1.8-.4,1.1l-4.6,4.6,4.6,4.6c.3.3.4.6.4,1.1Z"/>
    </g>
  </g>
  <g id="_D7743B56-8CE4-47DC-A50E-11EB495EC2E8">
    <path class="st1" d="M626.7,127.5"/>
    <path id="_x5F_D7743B56-8CE4-47DC-A50E-11EB495EC2E8_x3F_shapeType_x3D_BACKGROUND" class="st20" d="M628.7,127.5h150c1.1,0,2,.9,2,2v98h0c0,1.1-.9,2-2,2h-150c-1.1,0-2-.9-2-2v-98h0c0-1.1.9-2,2-2Z"/>
    <path id="_x5F_D7743B56-8CE4-47DC-A50E-11EB495EC2E8_x3F_shapeType_x3D_BORDER_x26_renderType_x3D_STROKE" class="st2" d="M628.7,127.5h150c1.1,0,2,.9,2,2v98h0c0,1.1-.9,2-2,2h-150c-1.1,0-2-.9-2-2v-98h0c0-1.1.9-2,2-2Z"/>
    <g>
      <path id="_D7743B56-8CE4-47DC-A50E-11EB495EC2E8_task__DLkt__BCEd" class="st6" d="M648,144.7c-.2-.2-.5-.2-.6,0l-3.4,3.4c-.2.2-.2.5,0,.6l3.4,3.4c0,0,.2.1.3.1s.2,0,.3-.1c.2-.2.2-.5,0-.6l-3.1-3.1,3.1-3.1c.2-.2.2-.5,0-.6Z"/>
      <path id="_D7743B56-8CE4-47DC-A50E-11EB495EC2E8_task__DLkt__j6Fy" class="st6" d="M651.8,144.7c-.2-.2-.5-.2-.6,0-.2.2-.2.5,0,.6l3.1,3.1-3.1,3.1c-.2.2-.2.5,0,.6,0,.1.2.1.3.1s.2,0,.3-.1l3.4-3.4c.2-.2.2-.5,0-.6l-3.4-3.4Z"/>
      <path id="_D7743B56-8CE4-47DC-A50E-11EB495EC2E8_task__DLkt__ilY5" class="st6" d="M660.1,138.8h-16.3c-4,0-3.8,3.8-3.8,3.8v11.5h-3.8s-.3,7.7,4.6,7.7h14.5c2.9,0,3.8-2.9,3.8-4.8v-10.6h3.8v-3.8s0-3.8-2.9-3.8ZM640.8,159.9c-.6,0-1-.2-1.3-.5-.7-.7-1.1-2.1-1.2-3.3h13.3c0,.2,0,.3,0,.5.1,1.4.4,2.5.9,3.3h-11.6ZM657.2,157.1c0,.6-.1,1.5-.5,2.1-.3.5-.7.8-1.4.8-2.1,0-1.9-5.8-1.9-5.8h-11.5v-11.5h0c0-.3,0-1.1.5-1.5.1-.1.4-.4,1.4-.4h13.7c-.1.5-.2,1.1-.3,1.6,0,0,0,0,0,.1h0c0,.2,0,.3,0,.3v14.4Z"/>
    </g>
    <text class="st19" transform="translate(689.4 183)"><tspan x="0" y="0">Done</tspan></text>
  </g>
  <g id="_3D4D478D-080D-4FD5-9463-16CEB3BDB328">
    <path d="M442.2,303"/>
    <path id="_x5F_3D4D478D-080D-4FD5-9463-16CEB3BDB328_x3F_shapeType_x3D_BACKGROUND" class="st20" d="M444.2,303h150c1.1,0,2,.9,2,2v98h0c0,1.1-.9,2-2,2h-150c-1.1,0-2-.9-2-2v-98h0c0-1.1.9-2,2-2Z"/>
    <path id="_x5F_3D4D478D-080D-4FD5-9463-16CEB3BDB328_x3F_shapeType_x3D_BORDER_x26_renderType_x3D_STROKE" class="st2" d="M444.2,303h150c1.1,0,2,.9,2,2v98h0c0,1.1-.9,2-2,2h-150c-1.1,0-2-.9-2-2v-98h0c0-1.1.9-2,2-2Z"/>
    <g>
      <path id="_3D4D478D-080D-4FD5-9463-16CEB3BDB328_task__DLkt__BCEd" class="st6" d="M463.5,320.2c-.2-.2-.5-.2-.6,0l-3.4,3.4c-.2.2-.2.5,0,.6l3.4,3.4c0,0,.2.1.3.1s.2,0,.3-.1c.2-.2.2-.5,0-.6l-3.1-3.1,3.1-3.1c.2-.2.2-.5,0-.6Z"/>
      <path id="_3D4D478D-080D-4FD5-9463-16CEB3BDB328_task__DLkt__j6Fy" class="st6" d="M467.3,320.2c-.2-.2-.5-.2-.6,0-.2.2-.2.5,0,.6l3.1,3.1-3.1,3.1c-.2.2-.2.5,0,.6,0,.1.2.1.3.1s.2,0,.3-.1l3.4-3.4c.2-.2.2-.5,0-.6l-3.4-3.4Z"/>
      <path id="_3D4D478D-080D-4FD5-9463-16CEB3BDB328_task__DLkt__ilY5" class="st6" d="M475.6,314.3h-16.3c-4,0-3.8,3.8-3.8,3.8v11.5h-3.8s-.3,7.7,4.6,7.7h14.5c2.9,0,3.8-2.9,3.8-4.8v-10.6h3.8v-3.8s0-3.8-2.9-3.8ZM456.3,335.4c-.6,0-1-.2-1.3-.5-.7-.7-1.1-2.1-1.2-3.3h13.3c0,.2,0,.3,0,.5.1,1.4.4,2.5.9,3.3h-11.6ZM472.7,332.6c0,.6-.1,1.5-.5,2.1-.3.5-.7.8-1.4.8-2.1,0-1.9-5.8-1.9-5.8h-11.5v-11.5h0c0-.3,0-1.1.5-1.5.1-.1.4-.4,1.4-.4h13.7c-.1.5-.2,1.1-.3,1.6,0,0,0,0,0,.1h0c0,.2,0,.3,0,.3v14.4Z"/>
    </g>
    <text class="st19" transform="translate(490.5 358.5)"><tspan x="0" y="0">Didn&apos;t work</tspan></text>
  </g>
  <g id="_67DB8E86-E29B-4B7F-B206-DEAEEDCA0323">
    <path d="M676.2,326"/>
    <g>
      <path id="_x5F_67DB8E86-E29B-4B7F-B206-DEAEEDCA0323_x3F_shapeType_x3D_BACKGROUND" class="st11" d="M731.7,354c0,5-1.2,9.6-3.7,13.8-2.5,4.2-5.8,7.5-10,10s-8.8,3.7-13.8,3.7-9.6-1.2-13.8-3.7c-4.2-2.5-7.6-5.8-10-10-2.5-4.2-3.7-8.8-3.7-13.8s1.2-9.6,3.7-13.8c2.5-4.2,5.8-7.6,10-10,4.2-2.5,8.8-3.7,13.8-3.7s9.6,1.2,13.8,3.7c4.2,2.5,7.5,5.8,10,10,2.5,4.2,3.7,8.8,3.7,13.8Z"/>
      <path id="_x5F_67DB8E86-E29B-4B7F-B206-DEAEEDCA0323_x3F_shapeType_x3D_BORDER_x26_renderType_x3D_FILL" class="st16" d="M704.2,326c-15.5,0-28,12.5-28,28s12.5,28,28,28,28-12.5,28-28-12.5-28-28-28ZM704.2,376c-12.1,0-22-9.8-22-22s9.9-22,22-22,22,9.9,22,22-9.8,22-22,22Z"/>
    </g>
  </g>
  <g id="_17A81190-8CDE-49A6-9E69-73EEF9631851">
    <path class="st9" d="M860.7,150.5"/>
    <g>
      <path id="_x5F_17A81190-8CDE-49A6-9E69-73EEF9631851_x3F_shapeType_x3D_BACKGROUND" class="st11" d="M916.2,178.5c0,5-1.2,9.6-3.7,13.8-2.5,4.2-5.8,7.5-10,10s-8.8,3.7-13.8,3.7-9.6-1.2-13.8-3.7c-4.2-2.5-7.6-5.8-10-10-2.5-4.2-3.7-8.8-3.7-13.8s1.2-9.6,3.7-13.8c2.5-4.2,5.8-7.6,10-10,4.2-2.5,8.8-3.7,13.8-3.7s9.6,1.2,13.8,3.7c4.2,2.5,7.5,5.8,10,10,2.5,4.2,3.7,8.8,3.7,13.8Z"/>
      <path id="_x5F_17A81190-8CDE-49A6-9E69-73EEF9631851_x3F_shapeType_x3D_BORDER_x26_renderType_x3D_FILL" class="st16" d="M888.7,150.5c-15.5,0-28,12.5-28,28s12.5,28,28,28,28-12.5,28-28-12.5-28-28-28ZM888.7,200.5c-12.1,0-22-9.8-22-22s9.9-22,22-22,22,9.9,22,22-9.8,22-22,22Z"/>
    </g>
  </g>
  <g id="_7EFF0AE2-633F-4BE5-A36F-A69D36372814">
    <path class="st9" d="M122.2,151.2"/>
    <g>
      <path id="_x5F_7EFF0AE2-633F-4BE5-A36F-A69D36372814_x3F_shapeType_x3D_BACKGROUND" class="st15" d="M177.7,179.2c0,5-1.2,9.6-3.7,13.8-2.5,4.2-5.8,7.5-10,10s-8.8,3.7-13.8,3.7-9.6-1.2-13.8-3.7c-4.2-2.5-7.6-5.8-10-10-2.5-4.2-3.7-8.8-3.7-13.8s1.2-9.6,3.7-13.8c2.5-4.2,5.8-7.6,10-10,4.2-2.5,8.8-3.7,13.8-3.7s9.6,1.2,13.8,3.7c4.2,2.5,7.5,5.8,10,10,2.5,4.2,3.7,8.8,3.7,13.8Z"/>
      <path id="_x5F_7EFF0AE2-633F-4BE5-A36F-A69D36372814_x3F_shapeType_x3D_BORDER_x26_renderType_x3D_FILL" class="st17" d="M150.2,151.2c-15.5,0-28,12.5-28,28s12.5,28,28,28,28-12.5,28-28-12.5-28-28-28ZM150.2,205.2c-14.4,0-26-11.6-26-26s11.6-26,26-26,26,11.6,26,26-11.6,26-26,26Z"/>
    </g>
  </g>
  <g id="_61F95F9E-130B-4D40-80EF-B11CBAF79679">
    <path class="st8" d="M178.2,179.1l65-.2"/>
    <path class="st13" d="M243.2,183.8v-10s15,4.9,15,4.9l-15,5.1Z"/>
  </g>
  <g id="_38E158AC-CF86-4FE2-B2EF-CD2260D7969A">
    <path class="st8" d="M411.2,178.5h64.5"/>
    <path class="st10" d="M475.7,183.5v-10l15,5-15,5Z"/>
  </g>
  <g id="_D832F19D-A172-4716-AE91-20A69C9BFDC1">
    <path class="st8" d="M518.8,206.5l.3,81.5"/>
    <path class="st14" d="M514.2,288h10s-4.9,15-4.9,15l-5.1-15Z"/>
  </g>
  <g id="_A4491C2C-FF61-49DA-83FA-BD3C28122C1C">
    <path class="st8" d="M596.2,354h65"/>
    <path class="st10" d="M661.2,359v-10l15,5-15,5Z"/>
  </g>
  <g id="_7296F9E5-D474-4E98-A274-B86BABFA83F9">
    <path class="st8" d="M546.7,178.5h65"/>
    <path class="st10" d="M611.7,183.5v-10l15,5-15,5Z"/>
  </g>
  <g id="_884A7A13-3197-4791-B43E-E8F68A418B30">
    <path class="st8" d="M780.7,178.5h65"/>
    <path class="st10" d="M845.7,183.5v-10l15,5-15,5Z"/>
  </g>
</svg>